<?xml version="1.0" encoding="utf-8"?>
<!-- Generator: Adobe Illustrator 22.0.1, SVG Export Plug-In . SVG Version: 6.00 Build 0)  -->
<svg version="1.1" id="Layer_1" xmlns="http://www.w3.org/2000/svg" xmlns:xlink="http://www.w3.org/1999/xlink" x="0px" y="0px"
	 viewBox="0 0 221.5 199.3" style="enable-background:new 0 0 221.5 199.3;" xml:space="preserve">
<style type="text/css">
	.st0{fill:url(#SVGID_1_);}
	.st1{fill:url(#SVGID_2_);}
	.st2{fill:#6DB157;}
	.st3{fill:#FFFFFF;}
	.st4{fill:url(#SVGID_3_);}
	.st5{fill:#80BC32;}
	.st6{fill:#37592C;}
	.st7{fill:#528241;}
	.st8{fill:#6DAE57;}
	.st9{fill:none;stroke:#37592C;stroke-width:6;stroke-linecap:round;stroke-miterlimit:10;}
	.st10{fill:#86C232;}
	.st11{fill:#EFEFEF;}
	.st12{fill:none;stroke:#6DB157;stroke-width:9;stroke-miterlimit:10;}
	.st13{fill:url(#SVGID_4_);}
	.st14{fill:url(#SVGID_5_);}
	.st15{fill:url(#SVGID_6_);}
	.st16{fill:url(#SVGID_7_);}
	.st17{fill:url(#SVGID_8_);}
	.st18{fill:url(#SVGID_9_);}
	.st19{fill:url(#SVGID_10_);}
	.st20{fill:url(#SVGID_11_);}
	.st21{fill:url(#SVGID_12_);}
	.st22{fill:url(#SVGID_13_);}
	.st23{fill:url(#SVGID_14_);}
	.st24{fill:url(#SVGID_15_);}
	.st25{fill:url(#SVGID_16_);}
	.st26{fill:url(#SVGID_17_);}
	.st27{fill:url(#SVGID_18_);}
	.st28{fill:url(#SVGID_19_);}
	.st29{fill:url(#SVGID_20_);}
	.st30{fill:url(#SVGID_21_);}
	.st31{fill:url(#SVGID_22_);}
	.st32{fill:#BCBCBC;}
	.st33{fill:#A0A0A0;}
</style>
<g>
	<path class="st10" d="M115.5,161.8c0.4,3.6,2.9,7.1,8.7,6.5c13.1-3,25.6-9.7,35.7-20c17.9-18.3,24.3-43.6,19.2-66.9
		C162.4,99.9,113.9,149.5,115.5,161.8z"/>
	<path class="st10" d="M73,167.2c0.1-0.1,0.2-0.1,0.2-0.2C73.1,167,73,167.1,73,167.2C72.9,167.2,72.9,167.2,73,167.2z"/>
	<path class="st10" d="M130.3,120.1c0.2-0.2,0.5-0.5,0.7-0.7c0.5-0.5,0.9-1,1.4-1.5c1-1.1,2.1-2.2,3.1-3.2c1-1.1,2.1-2.2,3.1-3.3
		c1-1,1.9-2.1,2.9-3.2c0.1-0.1,0.2-0.3,0.4-0.4c0.9-1,1.8-2,2.7-3c1.2-1.3,2.3-2.7,3.5-4c0.7-0.8,1.4-1.6,2.1-2.4
		c0.2-0.2,0.4-0.4,0.5-0.6c0.8-1,1.6-1.9,2.4-2.9c1.8-2.2,3.6-4.4,5.3-6.6c0.4-0.5,0.8-1.1,1.3-1.6c0.7-0.9,1.4-1.8,2.1-2.8
		c0.4-0.5,0.7-0.9,1.1-1.4c4.2-5.6,8-11,11.3-16.2c1.1-1.7,2.2-3.4,3.1-5c0.1-0.2,0.2-0.3,0.3-0.5c0.9-1.6,1.8-3.1,2.7-4.6
		c9-16.3,11.5-28.8,6.5-33.7c-4.8-4.7-16.9-2.5-32.1,5.9c-1.6,0.9-3.2,1.8-4.8,2.8l0.3,0.2l3.5,2.4l0.3,0.2c1.9-1,3.6-1.7,5.2-2.3
		c7.6-2.6,12.8-1,15.2,1.3c2.6,2.5,3.4,7,0.4,14.8c-0.6,1.6-1.4,3.4-2.4,5.3c-0.8,1.5-1.7,3.2-2.7,5c-3-4.7-6.5-9.2-10.7-13.2
		c-14.4-14.1-33.2-21.1-52-20.9c-18.7,0.2-37.4,7.5-51.5,21.9c-28.3,28.8-27.8,75.2,1,103.5c4.1,4,8.5,7.4,13.2,10.3
		c-1.8,1.1-3.4,2-5,2.8c-1.9,1-3.7,1.8-5.3,2.4c-7.2,2.8-11.4,2-13.9-0.5c-2.4-2.4-4.4-6.9-2-14.3c0.5-1.6,1.2-3.4,2.2-5.3
		c0,0,0,0,0,0l-2.9-4l0-0.1c-1,1.7-1.9,3.3-2.7,4.9c-8.1,15.3-9.6,26.7-4.8,31.4c4.9,4.8,17,2.3,32.7-6.7c1.7-0.9,3.3-1.9,5.1-3
		c0.1-0.1,0.2-0.1,0.3-0.2c1.5-1,3.1-2,4.7-3c15.8-10.6,34.5-25.8,51.7-43.2C129.9,120.5,130.1,120.3,130.3,120.1z"/>
</g>
</svg>
